<svg width="16" height="12" viewBox="0 0 16 12" fill="none" xmlns="http://www.w3.org/2000/svg">
<path d="M13.6062 0.611328H10.2949V2.388H13.6062V0.611328Z" fill="white"/>
<path d="M7.23903 6.66975C7.0955 6.46332 6.91569 6.28559 6.70865 6.14548C6.49515 5.99543 6.26399 5.87312 6.02058 5.78141C6.43934 5.55607 6.77967 5.20524 6.99534 4.77657C7.30587 4.11284 7.36704 3.35672 7.16736 2.65038C7.08949 2.37522 6.96848 2.1146 6.80899 1.87855C6.6302 1.63573 6.42325 1.4157 6.1926 1.22322C5.92176 1.02228 5.62197 0.865086 5.30385 0.757206C4.71868 0.551753 4.10234 0.453147 3.48334 0.465948H0V11.5775H3.66969H4.27175H4.75913L5.17483 11.4901C5.61597 11.3702 6.03315 11.1731 6.40762 10.9076C6.71083 10.6899 6.97302 10.4186 7.18169 10.1066C7.37184 9.83304 7.5126 9.52731 7.5974 9.20369C7.66886 8.91794 7.70734 8.62471 7.71208 8.32992C7.71592 8.04302 7.67231 7.7575 7.58307 7.48527C7.53307 7.18974 7.41521 6.91034 7.23903 6.66975ZM1.84918 2.16981H3.35432H4.02806L4.5011 2.27175C4.78391 2.35084 5.02858 2.53208 5.18917 2.78145C5.32208 3.02146 5.39124 3.29247 5.38985 3.56785C5.3923 3.83054 5.33335 4.09008 5.21784 4.32512C5.08314 4.56005 4.87684 4.74407 4.63011 4.84938C4.26705 4.97949 3.88191 5.03397 3.49767 5.00958H1.84918V2.16981ZM5.74822 8.72312C5.7008 8.88265 5.62286 9.03112 5.51887 9.16001C5.40333 9.3022 5.26226 9.4208 5.10316 9.50952C4.90513 9.6178 4.69267 9.69629 4.47243 9.74252C4.2753 9.79543 4.07374 9.82955 3.87037 9.84446H3.0533H1.84918V6.74256H3.58368H4.34342C4.51435 6.76263 4.6826 6.8017 4.84513 6.85907C5.13765 6.95009 5.39383 7.1338 5.57621 7.38333C5.73061 7.62603 5.81045 7.90992 5.80556 8.19886C5.8112 8.3755 5.79189 8.55204 5.74822 8.72312Z" fill="white"/>
<path d="M14.7075 4.29556C14.433 3.97075 14.0832 3.7205 13.6897 3.56741C13.2883 3.40663 12.8597 3.32746 12.4282 3.3344C11.9837 3.33192 11.5438 3.42627 11.1381 3.6111C10.7162 3.7915 10.3392 4.06511 10.0343 4.41206C9.69459 4.81291 9.43637 5.27817 9.2746 5.78097C9.0753 6.39627 8.9784 7.04103 8.98791 7.68871C8.97216 8.33326 9.07423 8.97517 9.28894 9.58189C9.46619 10.0637 9.75074 10.4973 10.1203 10.8489C10.4609 11.1796 10.8734 11.4241 11.3245 11.5624C11.7895 11.705 12.2723 11.7785 12.7579 11.7809C13.2394 11.7821 13.7197 11.7333 14.1914 11.6353C14.556 11.5704 14.9119 11.4628 15.2522 11.3149V9.74208C14.8802 9.88719 14.4965 9.99926 14.1054 10.077C13.7526 10.1575 13.3919 10.1966 13.0303 10.1935C12.7347 10.2007 12.4397 10.1614 12.1559 10.077C11.896 10.0114 11.6521 9.89245 11.4391 9.72752C11.228 9.55723 11.0607 9.33733 10.9518 9.08675C10.8167 8.78892 10.7389 8.46764 10.7224 8.14016H15.4959C15.4959 7.95085 15.4959 7.70328 15.4959 7.42658C15.5094 6.80198 15.4321 6.17877 15.2665 5.57709C15.1629 5.11739 14.9731 4.68227 14.7075 4.29556ZM10.8944 6.5965C10.9131 6.36779 10.9613 6.14256 11.0378 5.9266C11.1121 5.7287 11.2134 5.54241 11.3388 5.37321C11.4684 5.22423 11.6239 5.10081 11.7975 5.00914C11.9842 4.91329 12.1904 4.8634 12.3996 4.86351C12.6043 4.86171 12.8063 4.91176 12.9873 5.00914C13.1549 5.09745 13.3016 5.22167 13.4173 5.37321C13.5242 5.5449 13.6062 5.73126 13.661 5.9266C13.7187 6.14507 13.7476 6.37032 13.747 6.5965H10.8944Z" fill="white"/>
</svg>
