<svg width="14" height="15" viewBox="0 0 14 15" fill="none" xmlns="http://www.w3.org/2000/svg">
<path d="M8.24123 9.07149C8.28357 9.06229 8.3234 9.04385 8.3579 9.01747C8.3924 8.99109 8.42074 8.95741 8.44092 8.9188C8.46109 8.8802 8.47261 8.83761 8.47467 8.79403C8.47673 8.75045 8.46927 8.70695 8.45283 8.66659C8.17673 7.99171 7.85504 7.33666 7.49004 6.70606C7.44826 6.63811 7.38272 6.58839 7.30634 6.56669C7.22996 6.545 7.14829 6.5529 7.07741 6.58885C4.99604 7.66854 2.67838 8.20351 0.337854 8.14449C0.29525 8.14271 0.252766 8.15021 0.213304 8.16648C0.173842 8.18275 0.138333 8.2074 0.109202 8.23876C0.0800721 8.27012 0.0580068 8.30745 0.0445153 8.34818C0.0310239 8.38892 0.0264245 8.43211 0.03103 8.4748C0.162936 9.99899 0.821952 11.4282 1.89314 12.5131C1.9219 12.5451 1.957 12.5707 1.99618 12.5882C2.03536 12.6057 2.07775 12.6147 2.12061 12.6147C2.16347 12.6147 2.20586 12.6057 2.24504 12.5882C2.28422 12.5707 2.31932 12.5451 2.34808 12.5131C3.90837 10.7755 5.96873 9.57222 8.24123 9.07149Z" fill="white"/>
<path d="M7.49043 5.75729C7.51112 5.79244 7.53852 5.8231 7.57105 5.84752C7.60358 5.87193 7.6406 5.8896 7.67996 5.89951C7.71932 5.90942 7.76024 5.91137 7.80035 5.90524C7.84046 5.89912 7.87896 5.88505 7.91364 5.86384C9.25373 5.07286 10.4345 4.03556 11.3945 2.80583C11.4224 2.77898 11.4445 2.74672 11.4596 2.71102C11.4748 2.67531 11.4826 2.63688 11.4826 2.59806C11.4826 2.55923 11.4748 2.52081 11.4596 2.4851C11.4445 2.44939 11.4224 2.41714 11.3945 2.39028C10.1881 1.35963 8.65977 0.789972 7.07781 0.781363C6.11142 0.775899 5.15399 0.968017 4.26349 1.34608C4.2166 1.36514 4.17533 1.39597 4.14362 1.43564C4.11191 1.4753 4.09081 1.52248 4.08233 1.57268C4.07384 1.62288 4.07826 1.67443 4.09515 1.72243C4.11205 1.77042 4.14086 1.81326 4.17885 1.84687C5.46248 2.98439 6.57767 4.30124 7.49043 5.75729Z" fill="white"/>
<path d="M0.296245 7.88916C2.64254 7.95048 4.96675 7.41934 7.05696 6.34417C7.09328 6.32623 7.12556 6.301 7.15182 6.27002C7.17809 6.23904 7.19777 6.20297 7.20967 6.16404C7.22156 6.12511 7.22541 6.08414 7.22099 6.04365C7.21656 6.00316 7.20395 5.96401 7.18393 5.92862C6.2337 4.40937 5.05598 3.04719 3.69247 1.89034C3.64118 1.8546 3.58028 1.83545 3.5179 1.83545C3.45552 1.83545 3.39463 1.8546 3.34333 1.89034C2.33338 2.4638 1.49209 3.29619 0.904892 4.303C0.317694 5.3098 0.00549623 6.45516 0 7.62278C0.0100107 7.69534 0.0452942 7.76196 0.0995552 7.81075C0.153816 7.85954 0.223526 7.88733 0.296245 7.88916Z" fill="white"/>
<path d="M13.5113 9.03936C12.1497 8.84495 10.7677 8.84495 9.40619 9.03936C9.36194 9.04629 9.31972 9.06289 9.28252 9.08799C9.24531 9.1131 9.21401 9.14611 9.19082 9.1847C9.16763 9.22328 9.15311 9.26651 9.14828 9.31135C9.14344 9.3562 9.14842 9.40156 9.16285 9.44425C9.63728 10.7221 9.93628 12.0593 10.0516 13.4186C10.0538 13.4698 10.0691 13.5196 10.0961 13.5632C10.123 13.6067 10.1606 13.6425 10.2052 13.6671C10.2499 13.6918 10.3001 13.7044 10.351 13.7038C10.402 13.7032 10.4519 13.6894 10.4959 13.6637C11.3129 13.2315 12.0279 12.6271 12.592 11.8917C13.1562 11.1562 13.5563 10.3069 13.7652 9.40164C13.7744 9.36086 13.775 9.3186 13.7669 9.27758C13.7588 9.23657 13.7423 9.19773 13.7183 9.16357C13.6944 9.12941 13.6636 9.1007 13.6279 9.0793C13.5923 9.05791 13.5525 9.0443 13.5113 9.03936Z" fill="white"/>
<path d="M8.47469 9.35872C6.20295 9.82875 4.14948 11.0426 2.63445 12.811C2.58011 12.8684 2.5498 12.9447 2.5498 13.0241C2.5498 13.1034 2.58011 13.1797 2.63445 13.2372C3.8187 14.2398 5.3194 14.7839 6.86651 14.7715C7.77791 14.7718 8.6804 14.5907 9.52213 14.2388C9.57941 14.2143 9.62761 14.1724 9.6599 14.1188C9.69218 14.0653 9.70691 14.0029 9.70199 13.9404C9.61829 12.4405 9.31525 10.9613 8.80268 9.55051C8.77891 9.48496 8.73308 9.42987 8.67315 9.39483C8.61323 9.35979 8.543 9.34701 8.47469 9.35872Z" fill="white"/>
<path d="M11.6697 3.12537C10.6583 4.34923 9.43166 5.37502 8.05127 6.15142C7.98439 6.1914 7.9358 6.25628 7.916 6.33203C7.89621 6.40779 7.90679 6.48835 7.94547 6.55631C8.34475 7.21643 8.69826 7.90354 9.00349 8.61274C9.02928 8.67914 9.07709 8.73451 9.13879 8.76947C9.2005 8.80442 9.27231 8.81681 9.34205 8.80453C10.7418 8.572 12.1681 8.55045 13.5741 8.7406C13.6145 8.7466 13.6556 8.74444 13.6951 8.73424C13.7346 8.72405 13.7717 8.70602 13.8042 8.68122C13.8367 8.65642 13.864 8.62534 13.8844 8.5898C13.9049 8.55426 13.9181 8.51496 13.9233 8.47423C14.0405 7.51151 13.9448 6.53458 13.643 5.6135C13.3412 4.69242 12.8407 3.85001 12.1775 3.14668C12.1512 3.10369 12.1148 3.06787 12.0715 3.04234C12.0282 3.01682 11.9793 3.00237 11.9292 3.00027C11.8791 2.99816 11.8292 3.00847 11.784 3.03028C11.7387 3.05209 11.6995 3.08474 11.6697 3.12537Z" fill="white"/>
</svg>
