<svg width="7" height="17" viewBox="0 0 7 17" fill="none" xmlns="http://www.w3.org/2000/svg">
<path d="M2.82393 1.20697C2.35038 1.47377 1.98583 1.90079 1.79487 2.41241C1.58199 3.10238 1.48888 3.82418 1.51966 4.54604V5.4019H0V7.81278H1.51966V16.7812H4.25983V7.71635H6.30598V5.30547H4.25983V4.49782C4.21144 4.07918 4.29964 3.65605 4.51111 3.29238C4.62544 3.1837 4.76133 3.10065 4.90983 3.04871C5.05832 2.99677 5.21606 2.9771 5.37265 2.99102C5.79661 2.99691 6.21838 3.05356 6.62906 3.15978L7 1.20697C6.25459 0.938368 5.47022 0.795809 4.67863 0.785068C4.03399 0.755205 3.39328 0.900953 2.82393 1.20697Z" fill="white"/>
</svg>
