<svg width="528" height="535" viewBox="0 0 528 535" fill="none" xmlns="http://www.w3.org/2000/svg">
<path d="M524.827 0.315613L524.827 531.834L-6.69124 0.315566L524.827 0.315613Z" fill="white" fill-opacity="0.7"/>
<path d="M99.6113 0.314484L-6.69237 0.314474L99.6113 106.618L99.6113 0.314484Z" fill="#8053A3" fill-opacity="0.5"/>
<path d="M99.6104 106.619L205.914 106.619L205.914 212.923L99.6104 106.619Z" fill="#8053A3" fill-opacity="0.5"/>
<path d="M205.916 212.924L312.22 212.924L312.22 319.228L205.916 212.924Z" fill="#8053A3" fill-opacity="0.5"/>
<path d="M312.219 319.227L418.522 319.227L418.522 425.53L312.219 319.227Z" fill="#8053A3" fill-opacity="0.5"/>
<path d="M418.523 425.53L524.827 425.53L524.827 531.834L418.523 425.53Z" fill="#8053A3" fill-opacity="0.5"/>
<path d="M418.523 319.227L524.827 425.53L524.827 319.227L418.523 319.227Z" fill="#8053A3" fill-opacity="0.5"/>
<path d="M312.219 212.924L418.522 319.228L418.522 212.924L312.219 212.924Z" fill="#8053A3" fill-opacity="0.5"/>
<path d="M205.916 106.619L312.22 212.923L312.22 106.619L205.916 106.619Z" fill="#8053A3" fill-opacity="0.5"/>
<path d="M205.916 0.314467L312.22 106.618L312.22 0.314476L205.916 0.314467Z" fill="#8053A3" fill-opacity="0.5"/>
<path d="M418.523 212.924L524.827 319.228L524.827 212.924L418.523 212.924Z" fill="#8053A3" fill-opacity="0.5"/>
<path d="M312.219 106.619L418.522 212.923L418.522 106.619L312.219 106.619Z" fill="#8053A3" fill-opacity="0.5"/>
<path d="M312.219 0.314467L418.522 106.618L418.522 0.314476L312.219 0.314467Z" fill="#8053A3" fill-opacity="0.5"/>
<path d="M418.523 0.314467L524.827 106.618L524.827 0.314476L418.523 0.314467Z" fill="#8053A3" fill-opacity="0.5"/>
<path d="M418.523 106.619L524.827 212.923L524.827 106.619L418.523 106.619Z" fill="#8053A3" fill-opacity="0.5"/>
<path d="M99.6104 0.314467L205.914 106.618L205.914 0.314476L99.6104 0.314467Z" fill="#8053A3" fill-opacity="0.5"/>
<path d="M260.233 267.242L-4.35401 534.168L527.159 531.829L260.233 267.242Z" fill="white" fill-opacity="0.7"/>
<path d="M260.235 267.241L-4.35255 534.167L-6.69141 2.65332L260.235 267.241Z" fill="#2D1145" fill-opacity="0.6"/>
</svg>
