<svg width="13" height="14" viewBox="0 0 13 14" fill="none" xmlns="http://www.w3.org/2000/svg">
<path d="M9.80931 0.78125H3.20255C2.35318 0.78125 1.5386 1.12069 0.938006 1.72488C0.337411 2.32908 0 3.14855 0 4.00301V10.6494C0.00312492 11.5029 0.341539 12.3205 0.941459 12.924C1.54138 13.5275 2.35415 13.868 3.20255 13.8711H9.80931C10.6557 13.8649 11.4654 13.523 12.0628 12.9199C12.6601 12.3167 12.9969 11.5008 13 10.6494V4.00301C13 3.15061 12.6642 2.33295 12.0662 1.72909C11.4682 1.12524 10.6566 0.784407 9.80931 0.78125ZM6.48814 10.542C5.85473 10.542 5.23555 10.353 4.70889 9.99902C4.18224 9.64501 3.77176 9.14184 3.52936 8.55314C3.28697 7.96444 3.22355 7.31665 3.34712 6.69169C3.47069 6.06673 3.77571 5.49267 4.22359 5.0421C4.67148 4.59153 5.24212 4.28469 5.86335 4.16037C6.48459 4.03606 7.12851 4.09986 7.7137 4.34371C8.29889 4.58756 8.79906 5.0005 9.15097 5.53031C9.50287 6.06013 9.69069 6.68302 9.69069 7.32023C9.69226 7.74376 9.6105 8.16341 9.45011 8.555C9.28972 8.9466 9.05388 9.30239 8.75618 9.60187C8.45849 9.90135 8.10482 10.1386 7.71556 10.3C7.3263 10.4613 6.90914 10.5436 6.48814 10.542ZM10.4617 4.1104C10.3209 4.1104 10.1833 4.06841 10.0663 3.98974C9.94926 3.91107 9.85804 3.79926 9.80417 3.66843C9.75031 3.53761 9.73621 3.39366 9.76367 3.25478C9.79113 3.1159 9.85892 2.98833 9.95845 2.8882C10.058 2.78808 10.1848 2.71989 10.3228 2.69226C10.4609 2.66464 10.604 2.67882 10.734 2.73301C10.8641 2.78719 10.9752 2.87896 11.0534 2.9967C11.1316 3.11443 11.1734 3.25285 11.1734 3.39445C11.1734 3.58229 11.1 3.7626 10.9691 3.89653C10.8382 4.03046 10.6602 4.10727 10.4735 4.1104H10.4617Z" fill="white"/>
</svg>
