<svg width="13" height="13" viewBox="0 0 13 13" fill="none" xmlns="http://www.w3.org/2000/svg">
<path d="M12.167 2.17586L12.9531 0.917389C12.7893 0.934726 12.6241 0.934726 12.4603 0.917389C11.8723 0.898956 11.302 0.711127 10.8177 0.376365C10.4529 0.132143 10.0244 0.00122274 9.58574 0C8.91696 0.0290427 8.28038 0.295965 7.79015 0.752899C7.29993 1.20983 6.98812 1.82689 6.91065 2.49341C6.91065 2.76393 6.91065 3.05796 6.85198 3.36376C6.79332 3.66955 6.85198 3.66955 6.85198 3.82245V4.14001H6.5704C5.37288 4.04455 4.206 3.71278 3.13682 3.16377C2.06763 2.61475 1.11724 1.85933 0.340253 0.940911C0.141879 1.58809 0.13026 2.27833 0.30674 2.93186C0.483219 3.58538 0.84059 4.17549 1.33755 4.63399L1.93592 5.31615L0 4.73984C0.152527 6.55109 2.65162 8.19769 2.65162 8.19769H1.19675C1.19675 8.19769 1.12635 9.84428 3.76625 10.9498L0.551444 12.126C1.62769 12.6608 2.81145 12.9423 4.01264 12.9493C7.95487 12.9493 11.3457 9.92661 12.2256 5.61018C12.2941 5.22103 12.3411 4.82839 12.3664 4.43404C12.358 3.57676 12.5766 2.73259 13 1.98767L12.167 2.17586Z" fill="white"/>
</svg>
