<svg width="183" height="40" viewBox="0 0 183 40" fill="none" xmlns="http://www.w3.org/2000/svg">
<path fill-rule="evenodd" clip-rule="evenodd" d="M59.0864 32.0147L58.8998 32.5813H57.4063V38.9087H56.7529V32.5813H55.166V32.0147H59.0864ZM63.8003 38.2948L63.6136 38.9087H60.2066V32.0147H63.7536L63.6136 32.5813H60.86V35.0839H63.4736V35.6978H60.86V38.2948H63.8003ZM70.661 32.6758L70.2877 33.1952C70.0076 32.9591 69.7276 32.8174 69.4476 32.6758C69.1675 32.5813 68.8875 32.5341 68.5608 32.5341C67.8141 32.5341 67.114 32.8174 66.5539 33.3841C65.9939 33.9507 65.7138 34.659 65.7138 35.4617C65.7138 36.2644 65.9939 36.9727 66.5539 37.5393C67.114 38.1532 67.7674 38.4365 68.6075 38.4365C68.9342 38.4365 69.2609 38.3893 69.5409 38.2476C69.8676 38.1532 70.101 38.0115 70.3343 37.8699L70.661 38.3421C70.381 38.5309 70.0076 38.7198 69.6809 38.8615C69.3076 38.9559 68.8875 39.0504 68.5141 39.0504C67.534 39.0504 66.6939 38.6726 66.0405 37.9643C65.3405 37.256 65.0138 36.4061 65.0138 35.4617C65.0138 34.4229 65.3871 33.5729 66.1339 32.9119C66.834 32.2508 67.6274 31.9203 68.5608 31.9203C68.9342 31.9203 69.3076 31.9675 69.6809 32.1091C70.0543 32.2508 70.381 32.4397 70.661 32.6758ZM76.9151 38.9087H76.2617V35.6506H72.8546V38.9087H72.2012V32.0147H72.8546V35.0839H76.2617V32.0147H76.9151V38.9087ZM84.5692 38.9087H83.7291L79.622 32.723V38.9087H78.9219V32.0147H79.8087L83.9158 38.1532V32.0147H84.5692V38.9087ZM93.2502 35.4617C93.2502 36.4533 92.9235 37.3032 92.2234 37.9643C91.57 38.6726 90.7299 39.0031 89.7498 39.0031C88.7697 39.0031 87.9296 38.6726 87.2762 37.9643C86.5761 37.3032 86.2494 36.4533 86.2494 35.4617C86.2494 34.4701 86.5761 33.6202 87.2762 32.9591C87.9296 32.2508 88.7697 31.9203 89.7498 31.9203C90.7299 31.9203 91.57 32.2508 92.2234 32.9591C92.9235 33.6202 93.2502 34.4701 93.2502 35.4617ZM92.5968 35.4145C92.5968 34.659 92.3167 33.9979 91.7567 33.3841C91.1966 32.8174 90.5432 32.4869 89.7498 32.4869C88.9564 32.4869 88.2563 32.7702 87.7429 33.3841C87.1828 33.9507 86.9495 34.659 86.9495 35.4617C86.9495 36.2644 87.1828 36.9727 87.7429 37.5393C88.303 38.106 88.9564 38.4365 89.7498 38.4365C90.5432 38.4365 91.2433 38.106 91.7567 37.4921C92.3167 36.9255 92.5968 36.2172 92.5968 35.4145ZM98.4774 38.2948L98.3374 38.9087H94.8837V32.0147H95.5838V38.2948H98.4774ZM106.365 35.4617C106.365 36.4533 105.992 37.3032 105.338 37.9643C104.638 38.6726 103.845 39.0031 102.818 39.0031C101.838 39.0031 100.998 38.6726 100.344 37.9643C99.6442 37.3032 99.3175 36.4533 99.3175 35.4617C99.3175 34.4701 99.6442 33.6202 100.344 32.9591C100.998 32.2508 101.838 31.9203 102.818 31.9203C103.845 31.9203 104.638 32.2508 105.338 32.9591C105.992 33.6202 106.365 34.4701 106.365 35.4617ZM105.665 35.4145C105.665 34.659 105.385 33.9979 104.871 33.3841C104.311 32.8174 103.611 32.4869 102.818 32.4869C102.024 32.4869 101.371 32.7702 100.811 33.3841C100.298 33.9507 100.018 34.659 100.018 35.4617C100.018 36.2644 100.298 36.9727 100.811 37.5393C101.371 38.106 102.024 38.4365 102.818 38.4365C103.658 38.4365 104.311 38.106 104.871 37.4921C105.385 36.9255 105.665 36.2172 105.665 35.4145ZM114.719 35.3673C114.719 36.3589 114.346 37.2088 113.692 37.9171C113.039 38.6726 112.199 39.0031 111.219 39.0031C110.192 39.0031 109.352 38.6726 108.652 37.9643C107.998 37.3032 107.625 36.4533 107.625 35.5089C107.625 34.5173 107.998 33.6674 108.699 32.9591C109.399 32.2508 110.239 31.873 111.219 31.873C112.106 31.873 112.946 32.298 113.786 33.0535L113.319 33.5257C113.039 33.2424 112.712 32.9591 112.339 32.7702C111.966 32.5813 111.592 32.4869 111.172 32.4869C110.425 32.4869 109.772 32.7702 109.165 33.3368C108.605 33.9035 108.278 34.6118 108.278 35.4617C108.278 36.2644 108.559 36.9255 109.119 37.4921C109.679 38.0588 110.379 38.3421 111.125 38.3421C111.872 38.3421 112.526 38.106 113.086 37.5866C113.599 37.1144 113.926 36.4533 114.019 35.6978H111.172V35.0839H114.673L114.719 35.3673ZM116.959 38.9087H116.259V32.0147H116.959V38.9087ZM122.513 38.2948L122.373 38.9087H118.92V32.0147H122.513L122.373 32.5813H119.62V35.0839H122.187V35.6978H119.62V38.2948H122.513ZM127.787 36.8311C127.787 37.3977 127.601 37.9171 127.181 38.2948C126.761 38.767 126.2 38.9559 125.5 38.9559C124.987 38.9559 124.52 38.8143 124.1 38.5309C123.96 38.4837 123.774 38.2948 123.54 38.106L124.054 37.6338C124.194 37.8227 124.334 37.9171 124.474 38.0115C124.847 38.2476 125.174 38.3893 125.547 38.3893C126.014 38.3893 126.387 38.2476 126.667 37.9643C126.947 37.7282 127.134 37.3505 127.134 36.9255C127.134 36.4061 126.807 36.0283 126.247 35.7922C125.687 35.6034 125.174 35.4617 124.614 35.2728C124.054 34.9895 123.774 34.5173 123.774 33.8562C123.774 33.3368 123.96 32.8646 124.287 32.4869C124.707 32.1091 125.22 31.873 125.827 31.873C126.154 31.873 126.527 31.9675 126.901 32.1091C127.041 32.1564 127.181 32.2036 127.367 32.298L127.134 32.8646C126.947 32.7702 126.807 32.723 126.714 32.6758C126.387 32.5341 126.06 32.4397 125.78 32.4397C125.36 32.4397 125.034 32.6286 124.754 32.9119C124.52 33.1952 124.427 33.4785 124.427 33.7618C124.427 34.234 124.707 34.5645 125.267 34.7534C125.827 34.9895 126.387 35.1784 126.901 35.3673C127.507 35.6506 127.787 36.17 127.787 36.8311Z" fill="#23EABA"/>
<path fill-rule="evenodd" clip-rule="evenodd" d="M4.2938 0H23.9893C25.0161 0 25.9028 0.330534 26.6496 0.944382H26.2295H25.7161H25.2961H24.7827H24.5493L16.8952 11.5687L5.60061 27.6232H5.83397H6.30069H6.76741H7.2808H7.70084H8.21423H8.68095H9.14767H9.61438H10.0811H10.5478H11.0612H11.5279H11.9946H12.4614H12.9281H13.3948H13.9082H14.3749H14.8416H15.3083H15.7751H16.2418H16.7552H17.1752H17.6886H18.1553H18.622H19.0888H19.6021H20.0222H20.5356H21.0023H21.469H21.9357H22.4491H22.8692H23.3826H23.8493H24.316H24.7827H25.2961H25.7161H26.7429C25.9962 28.237 25.0627 28.6148 23.9893 28.6148H4.2938C3.26702 28.6148 2.28692 28.237 1.54017 27.6232H1.91354H2.38026H2.84698H3.36037H3.59373L11.2479 16.9517L22.5425 0.944382H22.3091H21.7957H21.3757H20.8623H20.3956H19.9288H19.4621H18.9954H18.5287H18.0153H17.5486H17.0819H16.6151H16.1484H15.6817H15.1683H14.7016H14.2349H13.7682H13.3015H12.8347H12.3213H11.8546H11.3879H10.9212H10.4545H9.98776H9.47437H9.05432H8.54093H8.07421H7.6075H7.14078H6.62739H6.20734H5.69395H5.22724H4.76052H4.2938H3.78041H3.36037H2.84698H2.38026H1.63351C2.38026 0.330534 3.3137 0 4.2938 0ZM27.8164 2.31374C28.0964 2.92759 28.2831 3.63587 28.2831 4.34416V24.0818H12.1347L22.4491 9.72714L27.8164 2.31374ZM0.420046 26.1122C0.140015 25.5455 0 24.9317 0 24.2706V4.4386H16.0084L5.64728 18.8404L0.420046 26.1122Z" fill="#23EABA"/>
<path fill-rule="evenodd" clip-rule="evenodd" d="M37.1505 4.39047H44.1512H48.445V0.660156H32.9033V4.39047H36.6371H37.1505ZM75.7013 0.660156L79.7151 22.8059C86.0625 22.8059 73.3677 22.8059 91.6164 22.8059V26.5362H83.7755H83.3555H82.8888H82.4221H81.9553H81.4886H81.0219H80.5552H80.0885H79.6684H79.2017H78.735H78.2683H77.8016H77.3348H76.8681H76.4481H75.9814L71.5475 0.660156C72.901 0.660156 74.3012 0.660156 75.7013 0.660156ZM36.6371 22.8059H32.9033V26.5362H48.4917V22.8059H36.6371ZM45.7381 11.6622H44.1512H32.9033V15.4397H45.7381V11.6622ZM71.0808 26.5362H75.0946C70.8941 17.8951 66.647 9.25403 62.4465 0.660156L49.8452 26.5362H53.8589L57.7794 18.4618L57.826 18.3673L62.4932 8.73462L71.0808 26.5362ZM113.645 26.5362H117.706L105.058 0.660156L92.4098 26.5362H96.4236L105.105 8.73462L112.899 24.9308L113.645 26.5362ZM132.688 26.5362L124.567 16.7619C128.907 15.9592 131.147 12.5122 131.147 8.87628C131.147 4.76822 128.347 0.660156 122.84 0.660156H118.546V2.31283V4.39047V13.3621V15.1564C121.72 18.8395 124.847 22.7587 127.927 26.5362H132.688ZM126.387 5.90148C126.574 6.09035 126.714 6.32645 126.854 6.51533V11.19C126.714 11.4261 126.574 11.6622 126.387 11.8511V5.90148ZM125.92 12.3233C125.78 12.4177 125.64 12.5122 125.453 12.6538V5.14597C125.64 5.19319 125.78 5.33485 125.92 5.42929V12.3233ZM125.033 12.8899C124.847 12.9843 124.707 13.0316 124.567 13.0788V4.67378C124.707 4.721 124.847 4.76822 125.033 4.86266V12.8899ZM127.32 10.0568V7.6958C127.414 8.07356 127.46 8.45131 127.46 8.87628C127.46 9.25403 127.414 9.67901 127.32 10.0568ZM119.059 13.3621V4.39047H119.479V13.3621H119.059ZM119.946 13.3621V4.39047H120.413V13.3621H119.946ZM120.88 13.3621V4.39047H121.3V13.3621H120.88ZM121.766 13.3621V4.39047H122.233V13.3621H121.766ZM122.84 13.3621L122.7 13.4093V4.43769L122.84 4.39047C122.933 4.39047 123.073 4.39047 123.167 4.43769V13.3149C123.073 13.3149 122.933 13.3621 122.84 13.3621ZM123.633 13.2677V4.4849C123.773 4.4849 123.913 4.53212 124.1 4.53212V13.2204C123.913 13.2677 123.773 13.3149 123.633 13.3149V13.2677ZM155.37 26.5362H159.43L146.782 0.660156L134.134 26.5362H138.101L146.782 8.73462L151.496 18.5562L151.636 18.8395L151.87 19.3589L152.103 19.7839H152.056L152.29 20.2561H152.336L155.37 26.5362ZM176.046 10.6234C176.232 10.3873 176.372 10.1984 176.559 9.96232V0.660156H176.046V10.6234ZM176.046 26.5362H176.559V17.3285L176.046 16.6674V26.5362ZM176.979 26.5362H177.492V18.6034L176.979 17.9424V26.5362ZM176.979 9.34847C177.119 9.11238 177.306 8.87628 177.492 8.68741V0.660156H176.979V9.34847ZM177.912 8.02634C178.053 7.83746 178.193 7.60137 178.379 7.36527V0.660156H177.912V8.02634ZM177.912 26.5362H178.379V19.8783L177.912 19.2645V26.5362ZM178.846 6.75142C178.986 6.51533 179.126 6.27923 179.266 6.04314V0.660156H178.846V6.75142ZM178.846 26.5362H179.266V21.2005L178.846 20.4922V26.5362ZM179.733 26.5362H180.199V22.4754L179.733 21.8143V26.5362ZM179.733 5.42929C179.919 5.19319 180.059 5.00431 180.199 4.76822V0.660156H179.733V5.42929ZM180.666 26.5362H181.133V23.7975L180.666 23.0892V26.5362ZM180.666 4.15437C180.806 3.91828 180.993 3.68218 181.133 3.44608V0.660156H180.666V4.15437ZM181.6 2.83224C181.74 2.59614 181.88 2.36004 182.066 2.12395V0.660156H181.6V2.83224ZM181.6 26.5362H182.066V25.0724L181.6 24.4114V26.5362ZM182.533 0.660156V1.5101C182.673 1.274 182.813 1.03791 183 0.849033V0.660156H182.533ZM182.533 26.5362H183V26.3474L182.533 25.6863V26.5362ZM173.759 0.660156H173.292V12.701L172.872 12.04V0.660156H172.359V11.3317L171.939 10.6706V0.660156H171.705H171.472V10.0095L171.098 9.49013L171.005 9.34847V0.660156H170.538V8.68741L170.072 8.07356V0.660156H169.605V7.41249L169.185 6.79864V0.660156H168.671V6.09035L168.251 5.47651V0.660156H167.785V4.81544L167.318 4.20159V0.660156H166.851V3.4933L166.385 2.87945V0.660156H165.965V2.21839L165.498 1.60454V0.660156H165.031V0.943471L164.798 0.660156H164.564H164.098H163.631H163.164H160.271C161.064 1.7462 162.091 3.16277 163.164 4.721C163.351 4.9571 163.491 5.19319 163.631 5.42929C163.771 5.61816 163.958 5.80704 164.098 6.04314C164.238 6.27923 164.424 6.46811 164.564 6.7042C164.704 6.89308 164.891 7.12918 165.031 7.31805C165.124 7.50693 165.264 7.64859 165.358 7.83746C166.851 9.9151 168.298 11.9927 169.512 13.6454L169.185 14.1176L168.671 14.7787L168.251 15.3925L167.785 16.0536L167.318 16.6674L166.851 17.3757L166.385 17.9896L165.965 18.6506L165.498 19.2645L165.031 19.9256L164.564 20.5866L164.098 21.2005L163.631 21.8143L163.164 22.5226L160.271 26.5362H164.798L165.031 26.2529V26.5362H165.498V25.5919L165.965 24.978V26.5362H166.385V24.3169L166.851 23.6559V26.5362H167.318V22.9948L167.785 22.3809V26.5362H168.251V21.7199L168.671 21.106V26.5362H169.185V20.3977L169.605 19.7839V26.5362H170.072V19.1228L170.538 18.509V26.5362H171.005V17.8479L171.472 17.2341V26.5362H171.705H171.939V16.573L172.359 15.9119V26.5362H172.872V15.2509L173.292 14.5898V26.5362H173.759V13.9287L173.945 13.6454L173.759 13.4093V0.660156ZM174.225 26.5362H174.692V14.7315L174.225 14.0704V26.5362ZM174.225 13.2204C174.365 12.9843 174.505 12.7955 174.692 12.5594V0.660156H174.225V13.2204ZM175.159 26.5362H175.626V16.0536L175.159 15.3453V26.5362ZM175.159 11.9455C175.299 11.7094 175.439 11.4733 175.626 11.2845V0.660156H175.159V11.9455Z" fill="#23EABA"/>
<path d="M37.2128 34.6582H0V36.2407H37.2128V34.6582Z" fill="#23EABA"/>
<path d="M182.969 34.6582H145.756V36.2407H182.969V34.6582Z" fill="#23EABA"/>
<path d="M42.0043 36.7373C42.7002 36.7373 43.2644 36.1665 43.2644 35.4624C43.2644 34.7583 42.7002 34.1875 42.0043 34.1875C41.3083 34.1875 40.7441 34.7583 40.7441 35.4624C40.7441 36.1665 41.3083 36.7373 42.0043 36.7373Z" fill="#23EABA"/>
<path d="M141.088 36.7373C141.784 36.7373 142.348 36.1665 142.348 35.4624C142.348 34.7583 141.784 34.1875 141.088 34.1875C140.392 34.1875 139.828 34.7583 139.828 35.4624C139.828 36.1665 140.392 36.7373 141.088 36.7373Z" fill="#23EABA"/>
</svg>
